<svg width="308" height="75" viewBox="0 0 308 75" fill="none" xmlns="http://www.w3.org/2000/svg">
    <g clipPath="url(#clip0_112_825)">
        <mask id="mask0_112_825" style="mask-type:luminance" maskUnits="userSpaceOnUse" x="0" y="0"
            width="308" height="75">
            <path d="M0 0H307.933V75H0V0Z" fill="white" />
        </mask>
        <g mask="url(#mask0_112_825)">
            <path
                d="M45.7533 38.4531V40.92C45.7533 41.7215 45.1037 42.3709 44.3022 42.3709H28.725C28.3656 42.3709 28.0742 42.6623 28.0742 43.0217V49.4548C28.0742 50.2549 27.4257 50.9033 26.6255 50.9033H23.5055C23.063 50.9033 22.7053 50.5455 22.7053 50.1054V38.4531C22.7053 37.6516 23.3549 37.002 24.1564 37.002H44.3022C45.1037 37.002 45.7533 37.6516 45.7533 38.4531Z"
                fill="#004AAD" />
            <path
                d="M50.1999 28.7859V32.5568C50.1999 32.9982 49.8423 33.3557 49.401 33.3557H23.5046C23.0635 33.3557 22.7057 32.9982 22.7057 32.5568V28.7859C22.7057 28.3448 23.0635 27.987 23.5046 27.987H49.401C49.8423 27.987 50.1999 28.3448 50.1999 28.7859Z"
                fill="#004AAD" />
            <path
                d="M118.951 28.7859V32.5568C118.951 32.9982 118.593 33.3557 118.152 33.3557H92.2553C91.8143 33.3557 91.4565 32.9982 91.4565 32.5568V28.7859C91.4565 28.3448 91.8143 27.987 92.2553 27.987H118.152C118.593 27.987 118.951 28.3448 118.951 28.7859Z"
                fill="#004AAD" />
            <path
                d="M263.898 51.9414H261.198C260.657 51.9414 260.156 51.6519 259.885 51.1835L258.769 49.2487L255.669 43.8798L255.415 43.4384C254.968 42.6643 254.142 42.1874 253.248 42.1874H248.261C247.367 42.1874 246.541 42.6643 246.095 43.4382L242.74 49.2487L241.621 51.1854C241.351 51.6533 240.851 51.9414 240.311 51.9414H237.609C236.444 51.9414 235.714 50.6798 236.295 49.67L236.54 49.2487L239.64 43.8798L240.617 42.1874L242.032 39.7371L240.349 36.8208L239.372 35.1284L236.272 29.7595L236.029 29.3382C235.446 28.3284 236.175 27.0668 237.343 27.0668H240.043C240.584 27.0668 241.085 27.3563 241.356 27.8247L242.472 29.7595L245.826 35.57C246.273 36.3439 247.099 36.8208 247.993 36.8208H252.98C253.874 36.8208 254.699 36.3439 255.146 35.57L258.501 29.7595L259.62 27.8228C259.89 27.3549 260.39 27.0668 260.93 27.0668H263.632C264.797 27.0668 265.527 28.3284 264.945 29.3382L264.701 29.7595L261.601 35.1284L260.624 36.8208L259.209 39.2711L260.892 42.1874L261.869 43.8798L264.969 49.2487L265.211 49.67C265.795 50.6798 265.065 51.9414 263.898 51.9414Z"
                fill="#5271FF" />
            <path
                d="M228.275 51.2031H224.809C224.381 51.2031 223.988 50.9637 223.793 50.5831L214.768 35.9375C214.314 35.0549 213.047 35.0549 212.593 35.9375L203.515 50.5831C203.319 50.9637 202.927 51.2031 202.499 51.2031H199.033C198.177 51.2031 197.625 50.2976 198.016 49.5367L210.661 28.912C211.291 27.6833 212.487 27.0666 213.681 27.0666C214.874 27.0666 216.067 27.681 216.698 28.9073L216.7 28.912L229.291 49.5367C229.683 50.2976 229.13 51.2031 228.275 51.2031Z"
                fill="#5271FF" />
            <path
                d="M167.06 51.1221H163.289C162.848 51.1221 162.49 50.7645 162.49 50.3232V37.7746C162.49 37.3332 162.848 36.9757 163.289 36.9757H167.06C167.501 36.9757 167.859 37.3332 167.859 37.7746V50.3232C167.859 50.7645 167.501 51.1221 167.06 51.1221Z"
                fill="#5271FF" />
            <path
                d="M154.596 28.7989V32.5438C154.596 32.9933 154.234 33.3558 153.784 33.3558H143.098V50.3124C143.098 50.7596 142.736 51.1221 142.286 51.1221H138.541C138.094 51.1221 137.729 50.7596 137.729 50.3124V33.3558H127.043C126.596 33.3558 126.231 32.9933 126.231 32.5438V28.7989C126.231 28.3494 126.596 27.9869 127.043 27.9869H153.784C154.234 27.9869 154.596 28.3494 154.596 28.7989Z"
                fill="#5271FF" />
            <path
                d="M118.951 46.6948V50.4655C118.951 50.9057 118.593 51.2634 118.15 51.2634H92.2543C91.8142 51.2634 91.4564 50.9057 91.4564 50.4655V37.7387C91.4564 37.2985 91.8142 36.9407 92.2543 36.9407H113.643C114.086 36.9407 114.443 37.2985 114.443 37.7387V41.5118C114.443 41.9519 114.086 42.3097 113.643 42.3097H96.8254V45.8945H118.15C118.593 45.8945 118.951 46.2523 118.951 46.6948Z"
                fill="#004AAD" />
            <path
                d="M83.2818 46.6948V50.4655C83.2818 50.9061 82.9245 51.2634 82.4839 51.2634H65.9202C61.8411 51.2634 58.5343 47.9566 58.5343 43.8775V28.7849C58.5343 28.3443 58.8916 27.987 59.3322 27.987H63.103C63.5436 27.987 63.9009 28.3443 63.9009 28.7849V42.6545C63.9009 44.4439 65.3515 45.8945 67.1409 45.8945H82.4839C82.924 45.8945 83.2818 46.2523 83.2818 46.6948Z"
                fill="#004AAD" />
            <path
                d="M189.846 51.3835H186.151C185.732 51.3835 185.351 51.1435 185.169 50.7669L182.046 44.2846C181.443 43.0347 180.177 42.2392 178.788 42.2392H163.289C162.848 42.2392 162.491 41.8814 162.491 41.4412V37.6681C162.491 37.228 162.848 36.8702 163.289 36.8702H182.663C183.632 36.8702 184.421 36.0841 184.421 35.1119C184.421 34.1422 183.632 33.356 182.663 33.356H163.289C162.848 33.356 162.491 32.9983 162.491 32.5558V28.785C162.491 28.3449 162.848 27.9871 163.289 27.9871H183.489C186.414 27.9871 188.926 29.776 189.985 32.318C190.333 33.1513 190.526 34.0669 190.526 35.0249C190.526 37.6799 189.053 39.9937 186.88 41.1917L190.839 49.8395C191.169 50.5621 190.642 51.3835 189.846 51.3835Z"
                fill="#5271FF" />
        </g>
    </g>
    <defs>
        <clipPath id="clip0_112_825">
            <rect width="307.934" height="75" fill="white" />
        </clipPath>
    </defs>
</svg>